<svg id="Capa_1" enable-background="new 0 0 512 512" height="512" viewBox="0 0 512 512" width="512" xmlns="http://www.w3.org/2000/svg"><g><g><g><g><path d="m317.911 421.114h-76.15l19.508-19.508c2.471-2.471 2.471-6.476 0-8.947l-13.42-13.42c-2.471-2.471-6.476-2.471-8.947 0l-46.508 46.508c-6.176 6.176-6.176 16.19 0 22.367l46.508 46.508c2.471 2.471 6.476 2.471 8.947 0l13.42-13.42c2.471-2.471 2.471-6.476 0-8.947l-19.508-19.509h76.15c3.494 0 6.326-2.832 6.326-6.326v-18.98c.001-3.494-2.832-6.326-6.326-6.326z" fill="#fb4a59"/></g><g><g><path d="m72.283 264.597 38.075-65.948 7.14 26.649c.904 3.375 4.373 5.378 7.748 4.473l18.333-4.912c3.375-.904 5.378-4.373 4.473-7.748l-17.023-63.531c-2.261-8.437-10.933-13.444-19.371-11.184l-63.531 17.023c-3.375.904-5.378 4.373-4.473 7.748l4.912 18.333c.904 3.375 4.373 5.378 7.748 4.473l26.649-7.14-38.075 65.948c-1.747 3.026-.71 6.895 2.316 8.642l16.436 9.49c3.027 1.747 6.896.71 8.643-2.316z" fill="#fb4a59"/></g><g><path d="m365.182 160.834 38.075 65.948-26.649-7.14c-3.375-.904-6.844 1.099-7.748 4.473l-4.912 18.333c-.904 3.375 1.099 6.844 4.473 7.748l63.531 17.023c8.437 2.261 17.109-2.746 19.371-11.184l17.023-63.531c.904-3.375-1.098-6.844-4.473-7.748l-18.333-4.912c-3.375-.904-6.844 1.098-7.748 4.473l-7.141 26.649-38.075-65.948c-1.747-3.026-5.616-4.063-8.642-2.316l-16.436 9.49c-3.027 1.747-4.063 5.616-2.316 8.642z" fill="#fb4a59"/></g></g><g><g><g><g><g><path d="m139.43 502.336h-129.43c-5.523 0-10-4.477-10-10v-49.444c0-28.657 23.231-51.889 51.889-51.889h45.652c28.657 0 51.889 23.231 51.889 51.889v49.444c0 5.523-4.477 10-10 10z" fill="#bcea73"/><g><g><path d="m96.171 460.62-17.844 15.687c-2.066 1.816-5.159 1.816-7.225 0l-17.843-15.687c-1.547-1.36-2.199-3.472-1.688-5.467l16.436-64.149h13.416l16.436 64.149c.511 1.995-.141 4.108-1.688 5.467z" fill="#107295"/></g></g><path d="m149.43 442.892v49.444c0 5.523-4.477 10-10 10h-17.007v-59.444c0-28.65-23.238-51.888-51.888-51.888h27.007c28.657 0 51.888 23.231 51.888 51.888z" fill="#a3e440"/><g><g><path d="m74.715 395.581c-23.363 0-42.302-18.939-42.302-42.302v-15.271c0-23.363 18.939-42.302 42.302-42.302 23.363 0 42.302 18.939 42.302 42.302v15.271c0 23.363-18.939 42.302-42.302 42.302z" fill="#ffcec0"/><path d="m117.018 338.013v15.266c0 23.362-18.94 42.302-42.302 42.302-4.672 0-9.178-.761-13.387-2.164 16.799-5.612 28.903-21.46 28.903-40.138v-15.266c0-11.675-4.732-22.257-12.389-29.913-4.589-4.589-10.213-8.12-16.514-10.225 4.209-1.403 8.715-2.164 13.387-2.164 11.675 0 22.257 4.732 29.913 12.389 7.657 7.657 12.389 18.238 12.389 29.913z" fill="#fdb0a0"/></g></g></g></g></g><g><g><g><path d="m502 502.336h-129.43c-5.523 0-10-4.477-10-10v-49.444c0-28.657 23.231-51.889 51.889-51.889h45.652c28.657 0 51.889 23.231 51.889 51.889v49.444c0 5.523-4.477 10-10 10z" fill="#27d1b3"/><g><g><path d="m458.741 460.62-17.844 15.687c-2.066 1.816-5.159 1.816-7.225 0l-17.844-15.687c-1.547-1.36-2.199-3.472-1.688-5.467l16.436-64.149h13.416l16.436 64.149c.512 1.995-.14 4.108-1.687 5.467z" fill="#fb4a59"/></g></g><path d="m512 442.892v49.444c0 5.523-4.477 10-10 10h-17.007v-59.444c0-28.65-23.238-51.888-51.888-51.888h27.007c28.657 0 51.888 23.231 51.888 51.888z" fill="#20b69f"/><g><g><path d="m437.285 395.581c-23.363 0-42.302-18.939-42.302-42.302v-15.271c0-23.363 18.939-42.302 42.302-42.302 23.363 0 42.302 18.939 42.302 42.302v15.271c0 23.363-18.939 42.302-42.302 42.302z" fill="#ffcec0"/><path d="m479.588 338.013v15.266c0 23.362-18.94 42.302-42.302 42.302-4.672 0-9.178-.761-13.387-2.164 16.799-5.612 28.903-21.46 28.903-40.138v-15.266c0-11.675-4.732-22.257-12.389-29.913-4.589-4.589-10.213-8.12-16.514-10.225 4.209-1.403 8.715-2.164 13.387-2.164 11.675 0 22.257 4.732 29.913 12.389 7.657 7.657 12.389 18.238 12.389 29.913z" fill="#fdb0a0"/></g></g></g></g></g></g></g><g><g><g><path d="m320.715 216.293h-129.43c-5.523 0-10-4.477-10-10v-49.444c0-28.657 23.231-51.889 51.889-51.889h45.652c28.657 0 51.889 23.231 51.889 51.889v49.444c0 5.523-4.477 10-10 10z" fill="#0d5f7f"/><g><g><path d="m277.456 174.577-17.844 15.687c-2.066 1.816-5.159 1.816-7.225 0l-17.844-15.687c-1.547-1.36-2.199-3.472-1.688-5.467l16.436-64.149h13.416l16.436 64.149c.512 1.995-.14 4.108-1.687 5.467z" fill="#68dbf9"/></g></g><path d="m330.715 156.849v49.444c0 5.523-4.477 10-10 10h-17.007v-59.444c0-28.65-23.238-51.888-51.888-51.888h27.007c28.657 0 51.888 23.231 51.888 51.888z" fill="#094c66"/><g><g><path d="m256 109.538c-23.363 0-42.302-18.939-42.302-42.302v-15.271c0-23.363 18.939-42.302 42.302-42.302 23.363 0 42.302 18.939 42.302 42.302v15.271c0 23.363-18.939 42.302-42.302 42.302z" fill="#ffcec0"/><path d="m298.303 51.97v15.266c0 23.362-18.94 42.302-42.302 42.302-4.672 0-9.178-.761-13.387-2.164 16.799-5.612 28.903-21.46 28.903-40.138v-15.266c0-11.675-4.732-22.257-12.389-29.913-4.589-4.589-10.213-8.12-16.514-10.225 4.209-1.403 8.715-2.164 13.387-2.164 11.675 0 22.257 4.732 29.913 12.389 7.657 7.657 12.389 18.238 12.389 29.913z" fill="#fdb0a0"/></g></g></g></g></g></g></g><g><g><g><path d="m296.1 348.772h-34.773c-4.267 0-7.726-3.459-7.726-7.726s3.459-7.726 7.726-7.726h34.773c4.267 0 7.726 3.459 7.726 7.726s-3.459 7.726-7.726 7.726z" fill="#bcea73"/></g><g><path d="m346.211 316.636h-84.884c-4.267 0-7.726-3.459-7.726-7.726s3.459-7.726 7.726-7.726h84.884c4.267 0 7.726 3.459 7.726 7.726.001 4.267-3.459 7.726-7.726 7.726z" fill="#bcea73"/></g><g><path d="m346.211 292.239h-84.884c-4.267 0-7.726-3.459-7.726-7.726s3.459-7.726 7.726-7.726h84.884c4.267 0 7.726 3.459 7.726 7.726s-3.459 7.726-7.726 7.726z" fill="#bcea73"/></g></g><circle cx="195.909" cy="312.779" fill="#27d1b3" r="30.121"/><g><path d="m199.27 325.205c-2.049 0-4.015-.814-5.464-2.263l-8.531-8.532c-3.018-3.018-3.017-7.909 0-10.927 3.018-3.017 7.91-3.018 10.927 0l3.068 3.068 21.296-21.296c3.017-3.017 7.909-3.017 10.927 0s3.018 7.909 0 10.927l-26.76 26.76c-1.448 1.449-3.414 2.263-5.463 2.263z" fill="#17998c"/></g></g></g></svg>